<svg width="80" height="80" viewBox="0 0 80 80" fill="none" xmlns="http://www.w3.org/2000/svg">
  <path fill-rule="evenodd" clip-rule="evenodd" d="M49.0152 30.2219C49.8924 30.8931 50.0595 32.1483 49.3883 33.0256L44.7041 39.1479C45.2099 39.9798 45.5012 40.9566 45.5012 42.0013C45.5012 42.2705 45.4819 42.5352 45.4445 42.7941L54.331 47.8496C54.7578 47.8395 55.1829 47.9466 55.5582 48.1646L57.3895 49.2283C58.4975 49.8718 58.8792 51.2885 58.2446 52.4016L58.2165 52.4507C57.9086 52.9875 57.3999 53.3801 56.8025 53.5418C56.2052 53.7036 55.568 53.6215 55.0312 53.3134L53.1944 52.2594C52.7799 52.0215 52.4661 51.6757 52.2679 51.2778L43.4677 46.2716C42.5217 47.0405 41.3153 47.5013 40.0012 47.5013C36.9636 47.5013 34.5012 45.0389 34.5012 42.0013C34.5012 38.9637 36.9636 36.5013 40.0012 36.5013C40.531 36.5013 41.0434 36.5762 41.5282 36.7161L46.2115 30.595C46.553 30.1485 47.0459 29.886 47.5632 29.8243C47.3428 29.7768 47.1257 29.6964 46.9187 29.5811L46.8711 29.5547C46.3216 29.2513 45.9175 28.7394 45.75 28.1345C45.5826 27.5296 45.6659 26.8827 45.9811 26.34L47.045 24.5084C47.6834 23.4092 49.0841 23.0233 50.1954 23.6404L50.2467 23.669C50.7909 23.9731 51.1908 24.4824 51.3571 25.0832C51.5234 25.684 51.4424 26.3264 51.1321 26.8671L50.078 28.704C49.6861 29.3869 49.0006 29.7973 48.2711 29.8661C48.5334 29.9295 48.7871 30.0473 49.0152 30.2219ZM40.0012 40.5013C39.1728 40.5013 38.5012 41.1729 38.5012 42.0013C38.5012 42.8297 39.1728 43.5013 40.0012 43.5013C40.8296 43.5013 41.5012 42.8297 41.5012 42.0013C41.5012 41.1729 40.8296 40.5013 40.0012 40.5013Z" fill="#C2CCDE" fill-opacity="0.25" />
  <path d="M42.151 23.3278C42.1494 22.7061 41.8997 22.1107 41.4573 21.6738C41.015 21.2369 40.4166 20.9946 39.7949 21.0007L39.7353 21.0013C38.4606 21.0174 37.4347 22.0536 37.4314 23.3284L37.4258 25.4464C37.4242 26.0722 37.674 26.6724 38.1191 27.1122C38.5643 27.5521 39.1674 27.7947 39.7931 27.7856L39.8482 27.7849C41.1294 27.7712 42.1599 26.7269 42.1565 25.4456L42.151 23.3278Z" fill="#C2CCDE" fill-opacity="0.25" />
  <path d="M32.6411 24.6869C32.3302 24.1517 31.8196 23.762 31.2214 23.6034C30.6232 23.4448 29.9865 23.5303 29.4514 23.8412L29.3995 23.8714C28.2934 24.5181 27.9158 25.9358 28.5535 27.047L29.6076 28.8839C29.9175 29.4238 30.4303 29.8176 31.0319 29.9775C31.6336 30.1375 32.2742 30.0504 32.8113 29.7356L32.8591 29.7077C33.9733 29.0604 34.3519 27.6324 33.7047 26.5181L32.6411 24.6869Z" fill="#C2CCDE" fill-opacity="0.25" />
  <path d="M58.0098 31.1981C57.3559 30.108 55.9499 29.7418 54.8474 30.3745L53.0103 31.4288C52.4659 31.7412 52.0703 32.2598 51.9129 32.8673C51.7555 33.4749 51.8495 34.1203 52.1737 34.6578L52.2013 34.7037C52.8567 35.7998 54.2715 36.1653 55.3758 35.5239L57.2072 34.4601C57.7462 34.147 58.1376 33.6312 58.294 33.0278C58.4503 32.4243 58.3587 31.7834 58.0396 31.2479L58.0098 31.1981Z" fill="#C2CCDE" fill-opacity="0.25" />
  <path d="M25.0469 30.5535C23.9356 29.9158 22.518 30.2934 21.8712 31.3995L21.841 31.4513C21.5302 31.9865 21.4446 32.6231 21.6032 33.2213C21.7618 33.8195 22.1515 34.3302 22.6867 34.6411L24.5179 35.7047C25.6322 36.3519 27.0602 35.9734 27.7074 34.8591L27.7353 34.8113C28.0502 34.2743 28.1373 33.6336 27.9774 33.032C27.8174 32.4303 27.4237 31.9175 26.8837 31.6076L25.0469 30.5535Z" fill="#C2CCDE" fill-opacity="0.25" />
  <path d="M25.7852 41.7933C25.7943 41.1675 25.5517 40.5644 25.1118 40.1192C24.672 39.6741 24.0718 39.4243 23.446 39.4259L21.328 39.4314C20.0532 39.4348 19.017 40.4606 19.0009 41.7353L19.0003 41.7949C18.9942 42.4166 19.2365 43.015 19.6734 43.4574C20.1103 43.8997 20.7057 44.1494 21.3274 44.1511L23.4452 44.1566C24.7265 44.1599 25.7707 43.1295 25.7845 41.8483L25.7852 41.7933Z" fill="#C2CCDE" fill-opacity="0.25" />
  <path d="M56.5544 39.427C55.9286 39.4254 55.3284 39.6751 54.8886 40.1202C54.4487 40.5653 54.2061 41.1685 54.2152 41.7942L54.2158 41.8473C54.2297 43.1285 55.2739 44.1588 56.5551 44.1555L58.6729 44.15C59.2947 44.1483 59.89 43.8986 60.3269 43.4563C60.7638 43.0139 61.0061 42.4155 61 41.7938L60.9994 41.7364C60.9833 40.4617 59.9471 39.4359 58.6724 39.4325L56.5544 39.427Z" fill="#C2CCDE" fill-opacity="0.25" />
  <path d="M27.5542 48.8715C27.2509 48.322 26.739 47.9178 26.134 47.7504C25.5291 47.5829 24.8823 47.6662 24.3395 47.9814L22.5079 49.0453C21.4088 49.6837 21.0228 51.0844 21.6398 52.1957L21.6685 52.247C21.9726 52.7912 22.4819 53.191 23.0827 53.3574C23.6835 53.5237 24.3259 53.4427 24.8666 53.1324L26.7035 52.0783C27.8112 51.4426 28.202 50.0347 27.5806 48.919L27.5542 48.8715Z" fill="#C2CCDE" fill-opacity="0.25" />
  <path d="M32.6573 54.1741C32.1199 53.8499 31.4745 53.756 30.867 53.9134C30.2594 54.0708 29.7409 54.4664 29.4285 55.0108L28.3742 56.8479C27.7415 57.9504 28.1077 59.3564 29.1977 60.0102L29.2476 60.04C29.783 60.3592 30.424 60.4508 31.0275 60.2944C31.6309 60.1381 32.1467 59.7467 32.4598 59.2077L33.5236 57.3763C34.165 56.272 33.7995 54.8572 32.7035 54.2018L32.6573 54.1741Z" fill="#C2CCDE" fill-opacity="0.25" />
  <path d="M50.2594 55.1946C49.618 54.077 48.1922 53.6908 47.0745 54.332L47.0288 54.3581C46.4876 54.6659 46.0919 55.1771 45.9296 55.7781C45.7673 56.3791 45.8519 57.0201 46.1646 57.5584L47.2283 59.3897C47.8719 60.4977 49.2886 60.8794 50.4017 60.2447L50.4507 60.2167C50.9876 59.9087 51.3801 59.4001 51.5419 58.8027C51.7037 58.2053 51.6215 57.5681 51.3134 57.0313L50.2594 55.1946Z" fill="#C2CCDE" fill-opacity="0.25" />
  <path d="M39.7941 56.2156C39.1684 56.2065 38.5653 56.4492 38.1202 56.889C37.6751 57.3288 37.4253 57.929 37.4269 58.5548L37.4325 60.6728C37.4358 61.9475 38.4616 62.9837 39.7363 62.9998L39.7937 63.0005C40.4155 63.0065 41.0139 62.7643 41.4562 62.3274C41.8986 61.8904 42.1483 61.2951 42.1499 60.6733L42.1554 58.5556C42.1588 57.2743 41.1284 56.2301 39.8473 56.2163L39.7941 56.2156Z" fill="#C2CCDE" fill-opacity="0.25" />
  <path fill-rule="evenodd" clip-rule="evenodd" d="M32.1666 9.33447C32.1666 8.2299 33.062 7.33447 34.1666 7.33447H45.8333C46.9378 7.33447 47.8333 8.2299 47.8333 9.33447C47.8333 10.439 46.9378 11.3345 45.8333 11.3345H41.9999V14.2043C44.9524 14.4166 47.879 15.0998 50.6651 16.2538C53.4511 17.4078 56.0036 18.9941 58.2413 20.9316L60.2699 18.903L58.3847 17.0178C57.6037 16.2368 57.6037 14.9704 58.3847 14.1894C59.1658 13.4083 60.4321 13.4083 61.2132 14.1894L64.4746 17.4508C64.4876 17.4631 64.5004 17.4756 64.5131 17.4883C64.5258 17.501 64.5382 17.5138 64.5505 17.5268L67.8128 20.789C68.5939 21.5701 68.5939 22.8364 67.8128 23.6175C67.0318 24.3985 65.7654 24.3985 64.9844 23.6175L63.0984 21.7314L61.0698 23.76C63.0072 25.9978 64.5935 28.5502 65.7475 31.3362C68.576 38.1648 68.576 45.8373 65.7475 52.6659C62.919 59.4945 57.4937 64.9198 50.6651 67.7483C43.8365 70.5768 36.164 70.5768 29.3354 67.7483C22.5068 64.9198 17.0815 59.4945 14.253 52.6659C11.4245 45.8373 11.4245 38.1648 14.253 31.3362C15.407 28.5502 16.9932 25.9978 18.9307 23.76L16.9017 21.731L15.0159 23.6168C14.2348 24.3978 12.9685 24.3978 12.1875 23.6168C11.4064 22.8357 11.4064 21.5694 12.1875 20.7883L15.4731 17.5027L15.4874 17.4883L15.5018 17.474L18.7871 14.1887C19.5682 13.4076 20.8345 13.4076 21.6156 14.1887C22.3966 14.9697 22.3966 16.2361 21.6156 17.0171L19.7301 18.9026L21.7591 20.9316C23.9969 18.9941 26.5493 17.4078 29.3354 16.2538C32.1213 15.0999 35.0477 14.4167 37.9999 14.2043V11.3345H34.1666C33.062 11.3345 32.1666 10.439 32.1666 9.33447ZM39.9999 18.1329C39.9856 18.1329 39.9714 18.1328 39.9571 18.1325C36.8666 18.1381 33.7768 18.7437 30.8661 19.9493C27.9524 21.1562 25.337 22.9151 23.1464 25.0996L23.1227 25.1237L23.0987 25.1473C20.9142 27.3379 19.1554 29.9533 17.9485 32.867C15.526 38.7154 15.526 45.2867 17.9485 51.1352C20.371 56.9837 25.0176 61.6303 30.8661 64.0528C36.7146 66.4753 43.2859 66.4753 49.1344 64.0528C54.9828 61.6303 59.6294 56.9837 62.052 51.1352C64.4745 45.2867 64.4745 38.7154 62.052 32.867C60.8457 29.9547 59.088 27.3405 56.905 25.1505C56.8958 25.1417 56.8867 25.1327 56.8776 25.1237C56.8686 25.1147 56.8597 25.1056 56.8508 25.0964C54.6608 22.9134 52.0466 21.1556 49.1344 19.9493C46.2235 18.7436 43.1335 18.138 40.0428 18.1325C40.0285 18.1328 40.0143 18.1329 39.9999 18.1329Z" fill="#C2CCDE" fill-opacity="0.25" />
  <path fill-rule="evenodd" clip-rule="evenodd" d="M49.0152 30.2219C49.8924 30.8931 50.0595 32.1483 49.3883 33.0256L44.7041 39.1479C45.2099 39.9798 45.5012 40.9566 45.5012 42.0013C45.5012 42.2705 45.4819 42.5352 45.4445 42.7941L54.331 47.8496C54.7578 47.8395 55.1829 47.9466 55.5582 48.1646L57.3895 49.2283C58.4975 49.8718 58.8792 51.2885 58.2446 52.4016L58.2165 52.4507C57.9086 52.9875 57.3999 53.3801 56.8025 53.5418C56.2052 53.7036 55.568 53.6215 55.0312 53.3134L53.1944 52.2594C52.7799 52.0215 52.4661 51.6757 52.2679 51.2778L43.4677 46.2716C42.5217 47.0405 41.3153 47.5013 40.0012 47.5013C36.9636 47.5013 34.5012 45.0389 34.5012 42.0013C34.5012 38.9637 36.9636 36.5013 40.0012 36.5013C40.531 36.5013 41.0434 36.5762 41.5282 36.7161L46.2115 30.595C46.553 30.1485 47.0459 29.886 47.5632 29.8243C47.3428 29.7768 47.1257 29.6964 46.9187 29.5811L46.8711 29.5547C46.3216 29.2513 45.9175 28.7394 45.75 28.1345C45.5826 27.5296 45.6659 26.8827 45.9811 26.34L47.045 24.5084C47.6834 23.4092 49.0841 23.0233 50.1954 23.6404L50.2467 23.669C50.7909 23.9731 51.1908 24.4824 51.3571 25.0832C51.5234 25.684 51.4424 26.3264 51.1321 26.8671L50.078 28.704C49.6861 29.3869 49.0006 29.7973 48.2711 29.8661C48.5334 29.9295 48.7871 30.0473 49.0152 30.2219ZM40.0012 40.5013C39.1728 40.5013 38.5012 41.1729 38.5012 42.0013C38.5012 42.8297 39.1728 43.5013 40.0012 43.5013C40.8296 43.5013 41.5012 42.8297 41.5012 42.0013C41.5012 41.1729 40.8296 40.5013 40.0012 40.5013Z" stroke="#C2CCDE" stroke-linecap="round" stroke-linejoin="round" />
  <path d="M42.151 23.3278C42.1494 22.7061 41.8997 22.1107 41.4573 21.6738C41.015 21.2369 40.4166 20.9946 39.7949 21.0007L39.7353 21.0013C38.4606 21.0174 37.4347 22.0536 37.4314 23.3284L37.4258 25.4464C37.4242 26.0722 37.674 26.6724 38.1191 27.1122C38.5643 27.5521 39.1674 27.7947 39.7931 27.7856L39.8482 27.7849C41.1294 27.7712 42.1599 26.7269 42.1565 25.4456L42.151 23.3278Z" stroke="#C2CCDE" stroke-linecap="round" stroke-linejoin="round" />
  <path d="M32.6411 24.6869C32.3302 24.1517 31.8196 23.762 31.2214 23.6034C30.6232 23.4448 29.9865 23.5303 29.4514 23.8412L29.3995 23.8714C28.2934 24.5181 27.9158 25.9358 28.5535 27.047L29.6076 28.8839C29.9175 29.4238 30.4303 29.8176 31.0319 29.9775C31.6336 30.1375 32.2742 30.0504 32.8113 29.7356L32.8591 29.7077C33.9733 29.0604 34.3519 27.6324 33.7047 26.5181L32.6411 24.6869Z" stroke="#C2CCDE" stroke-linecap="round" stroke-linejoin="round" />
  <path d="M58.0098 31.1981C57.3559 30.108 55.9499 29.7418 54.8474 30.3745L53.0103 31.4288C52.4659 31.7412 52.0703 32.2598 51.9129 32.8673C51.7555 33.4749 51.8495 34.1203 52.1737 34.6578L52.2013 34.7037C52.8567 35.7998 54.2715 36.1653 55.3758 35.5239L57.2072 34.4601C57.7462 34.147 58.1376 33.6312 58.294 33.0278C58.4503 32.4243 58.3587 31.7834 58.0396 31.2479L58.0098 31.1981Z" stroke="#C2CCDE" stroke-linecap="round" stroke-linejoin="round" />
  <path d="M25.0469 30.5535C23.9356 29.9158 22.518 30.2934 21.8712 31.3995L21.841 31.4513C21.5302 31.9865 21.4446 32.6231 21.6032 33.2213C21.7618 33.8195 22.1515 34.3302 22.6867 34.6411L24.5179 35.7047C25.6322 36.3519 27.0602 35.9734 27.7074 34.8591L27.7353 34.8113C28.0502 34.2743 28.1373 33.6336 27.9774 33.032C27.8174 32.4303 27.4237 31.9175 26.8837 31.6076L25.0469 30.5535Z" stroke="#C2CCDE" stroke-linecap="round" stroke-linejoin="round" />
  <path d="M25.7852 41.7933C25.7943 41.1675 25.5517 40.5644 25.1118 40.1192C24.672 39.6741 24.0718 39.4243 23.446 39.4259L21.328 39.4314C20.0532 39.4348 19.017 40.4606 19.0009 41.7353L19.0003 41.7949C18.9942 42.4166 19.2365 43.015 19.6734 43.4574C20.1103 43.8997 20.7057 44.1494 21.3274 44.1511L23.4452 44.1566C24.7265 44.1599 25.7707 43.1295 25.7845 41.8483L25.7852 41.7933Z" stroke="#C2CCDE" stroke-linecap="round" stroke-linejoin="round" />
  <path d="M56.5544 39.427C55.9286 39.4254 55.3284 39.6751 54.8886 40.1202C54.4487 40.5653 54.2061 41.1685 54.2152 41.7942L54.2158 41.8473C54.2297 43.1285 55.2739 44.1588 56.5551 44.1555L58.6729 44.15C59.2947 44.1483 59.89 43.8986 60.3269 43.4563C60.7638 43.0139 61.0061 42.4155 61 41.7938L60.9994 41.7364C60.9833 40.4617 59.9471 39.4359 58.6724 39.4325L56.5544 39.427Z" stroke="#C2CCDE" stroke-linecap="round" stroke-linejoin="round" />
  <path d="M27.5542 48.8715C27.2509 48.322 26.739 47.9178 26.134 47.7504C25.5291 47.5829 24.8823 47.6662 24.3395 47.9814L22.5079 49.0453C21.4088 49.6837 21.0228 51.0844 21.6398 52.1957L21.6685 52.247C21.9726 52.7912 22.4819 53.191 23.0827 53.3574C23.6835 53.5237 24.3259 53.4427 24.8666 53.1324L26.7035 52.0783C27.8112 51.4426 28.202 50.0347 27.5806 48.919L27.5542 48.8715Z" stroke="#C2CCDE" stroke-linecap="round" stroke-linejoin="round" />
  <path d="M32.6573 54.1741C32.1199 53.8499 31.4745 53.756 30.867 53.9134C30.2594 54.0708 29.7409 54.4664 29.4285 55.0108L28.3742 56.8479C27.7415 57.9504 28.1077 59.3564 29.1977 60.0102L29.2476 60.04C29.783 60.3592 30.424 60.4508 31.0275 60.2944C31.6309 60.1381 32.1467 59.7467 32.4598 59.2077L33.5236 57.3763C34.165 56.272 33.7995 54.8572 32.7035 54.2018L32.6573 54.1741Z" stroke="#C2CCDE" stroke-linecap="round" stroke-linejoin="round" />
  <path d="M50.2594 55.1946C49.618 54.077 48.1922 53.6908 47.0745 54.332L47.0288 54.3581C46.4876 54.6659 46.0919 55.1771 45.9296 55.7781C45.7673 56.3791 45.8519 57.0201 46.1646 57.5584L47.2283 59.3897C47.8719 60.4977 49.2886 60.8794 50.4017 60.2447L50.4507 60.2167C50.9876 59.9087 51.3801 59.4001 51.5419 58.8027C51.7037 58.2053 51.6215 57.5681 51.3134 57.0313L50.2594 55.1946Z" stroke="#C2CCDE" stroke-linecap="round" stroke-linejoin="round" />
  <path d="M39.7941 56.2156C39.1684 56.2065 38.5653 56.4492 38.1202 56.889C37.6751 57.3288 37.4253 57.929 37.4269 58.5548L37.4325 60.6728C37.4358 61.9475 38.4616 62.9837 39.7363 62.9998L39.7937 63.0005C40.4155 63.0065 41.0139 62.7643 41.4562 62.3274C41.8986 61.8904 42.1483 61.2951 42.1499 60.6733L42.1554 58.5556C42.1588 57.2743 41.1284 56.2301 39.8473 56.2163L39.7941 56.2156Z" stroke="#C2CCDE" stroke-linecap="round" stroke-linejoin="round" />
  <path fill-rule="evenodd" clip-rule="evenodd" d="M32.1666 9.33447C32.1666 8.2299 33.062 7.33447 34.1666 7.33447H45.8333C46.9378 7.33447 47.8333 8.2299 47.8333 9.33447C47.8333 10.439 46.9378 11.3345 45.8333 11.3345H41.9999V14.2043C44.9524 14.4166 47.879 15.0998 50.6651 16.2538C53.4511 17.4078 56.0036 18.9941 58.2413 20.9316L60.2699 18.903L58.3847 17.0178C57.6037 16.2368 57.6037 14.9704 58.3847 14.1894C59.1658 13.4083 60.4321 13.4083 61.2132 14.1894L64.4746 17.4508C64.4876 17.4631 64.5004 17.4756 64.5131 17.4883C64.5258 17.501 64.5382 17.5138 64.5505 17.5268L67.8128 20.789C68.5939 21.5701 68.5939 22.8364 67.8128 23.6175C67.0318 24.3985 65.7654 24.3985 64.9844 23.6175L63.0984 21.7314L61.0698 23.76C63.0072 25.9978 64.5935 28.5502 65.7475 31.3362C68.576 38.1648 68.576 45.8373 65.7475 52.6659C62.919 59.4945 57.4937 64.9198 50.6651 67.7483C43.8365 70.5768 36.164 70.5768 29.3354 67.7483C22.5068 64.9198 17.0815 59.4945 14.253 52.6659C11.4245 45.8373 11.4245 38.1648 14.253 31.3362C15.407 28.5502 16.9932 25.9978 18.9307 23.76L16.9017 21.731L15.0159 23.6168C14.2348 24.3978 12.9685 24.3978 12.1875 23.6168C11.4064 22.8357 11.4064 21.5694 12.1875 20.7883L15.4731 17.5027L15.4874 17.4883L15.5018 17.474L18.7871 14.1887C19.5682 13.4076 20.8345 13.4076 21.6156 14.1887C22.3966 14.9697 22.3966 16.2361 21.6156 17.0171L19.7301 18.9026L21.7591 20.9316C23.9969 18.9941 26.5493 17.4078 29.3354 16.2538C32.1213 15.0999 35.0477 14.4167 37.9999 14.2043V11.3345H34.1666C33.062 11.3345 32.1666 10.439 32.1666 9.33447ZM39.9999 18.1329C39.9856 18.1329 39.9714 18.1328 39.9571 18.1325C36.8666 18.1381 33.7768 18.7437 30.8661 19.9493C27.9524 21.1562 25.337 22.9151 23.1464 25.0996L23.1227 25.1237L23.0987 25.1473C20.9142 27.3379 19.1554 29.9533 17.9485 32.867C15.526 38.7154 15.526 45.2867 17.9485 51.1352C20.371 56.9837 25.0176 61.6303 30.8661 64.0528C36.7146 66.4753 43.2859 66.4753 49.1344 64.0528C54.9828 61.6303 59.6294 56.9837 62.052 51.1352C64.4745 45.2867 64.4745 38.7154 62.052 32.867C60.8457 29.9547 59.088 27.3405 56.905 25.1505C56.8958 25.1417 56.8867 25.1327 56.8776 25.1237C56.8686 25.1147 56.8597 25.1056 56.8508 25.0964C54.6608 22.9134 52.0466 21.1556 49.1344 19.9493C46.2235 18.7436 43.1335 18.138 40.0428 18.1325C40.0285 18.1328 40.0143 18.1329 39.9999 18.1329Z" stroke="#C2CCDE" stroke-linecap="round" stroke-linejoin="round" />
</svg>