<svg width="64" height="64" viewBox="0 0 64 64" fill="none" xmlns="http://www.w3.org/2000/svg">
<rect width="64" height="64" rx="32" fill="#D9D9D9"/>
<path opacity="0.4" d="M32 50.3333C36.2156 50.3333 40.2586 48.6587 43.2394 45.6778C46.2203 42.6969 47.895 38.654 47.895 34.4383C47.895 30.2227 46.2203 26.1798 43.2394 23.1989C40.2586 20.218 36.2156 18.5433 32 18.5433C27.7844 18.5433 23.7414 20.218 20.7605 23.1989C17.7796 26.1798 16.105 30.2227 16.105 34.4383C16.105 38.654 17.7796 42.6969 20.7605 45.6778C23.7414 48.6587 27.7844 50.3333 32 50.3333Z" fill="black"/>
<path d="M32 35.2083C31.2484 35.2083 30.625 34.585 30.625 33.8333V24.6667C30.625 23.915 31.2484 23.2917 32 23.2917C32.7517 23.2917 33.375 23.915 33.375 24.6667V33.8333C33.375 34.585 32.7517 35.2083 32 35.2083ZM37.2984 16.325H26.7017C25.9684 16.325 25.3817 15.7383 25.3817 15.005C25.3817 14.2717 25.9684 13.6667 26.7017 13.6667H37.2984C38.0317 13.6667 38.6184 14.2533 38.6184 14.9867C38.6184 15.72 38.0317 16.325 37.2984 16.325Z" fill="black"/>
</svg>
